<svg width="73" height="73" viewBox="0 0 73 73" fill="none" xmlns="http://www.w3.org/2000/svg">
<g clip-path="url(#clip0_30_127)">
<path d="M20.5425 27.3343C20.5734 24.797 22.6144 22.8102 25.1608 22.8292C27.6408 22.8482 29.6675 24.8966 29.6628 27.3818C29.6628 29.9002 27.61 31.9296 25.0778 31.9225C22.5527 31.9154 20.5117 29.8503 20.5449 27.3343H20.5425Z" fill="white"/>
<path d="M43.3396 27.3415C43.3586 24.8303 45.4209 22.8103 47.9579 22.8317C50.445 22.8507 52.4622 24.8849 52.4622 27.3771C52.4622 29.9027 50.4189 31.9345 47.8867 31.925C45.3616 31.9178 43.323 29.8599 43.342 27.3415H43.3396Z" fill="white"/>
<path d="M56.6913 44.5122C54.7927 47.7949 52.0446 50.1875 48.7221 51.9463C44.9036 53.9686 40.7813 54.7139 36.4098 54.7566C30.8803 54.6949 25.6426 53.4037 21.105 49.9097C19.2254 48.4619 17.6211 46.7624 16.4179 44.7092C15.6442 43.3824 15.9433 42.0436 17.1322 41.3719C18.3022 40.7073 19.5482 41.1274 20.3385 42.3949C22.6049 46.0099 25.9274 48.2055 29.9784 49.2974C35.3917 50.7571 40.7433 50.5625 45.9074 48.2364C48.7885 46.9356 51.1261 44.9727 52.7684 42.2288C53.4448 41.099 54.7643 40.7595 55.8559 41.3743C56.9714 42.0033 57.3629 43.3491 56.6889 44.5146L56.6913 44.5122Z" fill="white"/>
<path d="M36.4715 0C16.4179 0 -0.00948874 16.4372 4.11214e-06 36.4917C0.00949696 56.5771 16.4036 72.9953 36.4549 73C56.5797 73.0071 72.9953 56.6127 73.0024 36.5059C73.0071 16.4039 56.5916 0 36.4715 0ZM36.4953 68.4261C18.8931 68.4213 4.55894 54.0729 4.57793 36.4751C4.59692 18.8654 18.9406 4.54781 36.5427 4.5763C54.152 4.60241 68.4695 18.965 68.4245 36.5582C68.3794 54.1489 54.0713 68.4308 36.4953 68.4261Z" fill="white"/>
<path d="M20.5425 27.3343C20.5734 24.797 22.6144 22.8102 25.1608 22.8292C27.6408 22.8482 29.6675 24.8966 29.6628 27.3818C29.6628 29.9002 27.61 31.9296 25.0778 31.9225C22.5527 31.9154 20.5117 29.8503 20.5449 27.3343H20.5425Z" fill="#FEFEFE"/>
<path d="M43.3396 27.3415C43.3586 24.8303 45.4209 22.8103 47.9579 22.8317C50.445 22.8507 52.4622 24.8849 52.4622 27.3771C52.4622 29.9027 50.4189 31.9345 47.8867 31.925C45.3616 31.9178 43.323 29.8599 43.342 27.3415H43.3396Z" fill="#FEFEFE"/>
<path d="M56.6913 44.5122C54.7927 47.7949 52.0446 50.1875 48.7221 51.9463C44.9036 53.9686 40.7813 54.7139 36.4098 54.7566C30.8803 54.6949 25.6426 53.4037 21.105 49.9097C19.2254 48.4619 17.6211 46.7624 16.4179 44.7092C15.6442 43.3824 15.9433 42.0436 17.1322 41.3719C18.3022 40.7073 19.5482 41.1274 20.3385 42.3949C22.6049 46.0099 25.9274 48.2055 29.9784 49.2974C35.3917 50.7571 40.7433 50.5625 45.9074 48.2364C48.7885 46.9356 51.1261 44.9727 52.7684 42.2288C53.4448 41.099 54.7643 40.7595 55.8559 41.3743C56.9714 42.0033 57.3629 43.3491 56.6889 44.5146L56.6913 44.5122Z" fill="#FEFEFE"/>
<path d="M56.6913 44.5122C54.7927 47.7949 52.0446 50.1875 48.7221 51.9463C44.9036 53.9686 40.7813 54.7139 36.4098 54.7566C30.8803 54.6949 25.6426 53.4037 21.105 49.9097C19.2254 48.4619 17.6211 46.7624 16.4179 44.7092C15.6442 43.3824 15.9433 42.0436 17.1322 41.3719C18.3022 40.7073 19.5482 41.1274 20.3385 42.3949C22.6049 46.0099 25.9274 48.2055 29.9784 49.2974C35.3917 50.7571 40.7433 50.5625 45.9074 48.2364C48.7885 46.9356 51.1261 44.9727 52.7684 42.2288C53.4448 41.099 54.7643 40.7595 55.8559 41.3743C56.9714 42.0033 57.3629 43.3491 56.6889 44.5146L56.6913 44.5122Z" fill="white"/>
<path d="M29.6628 27.3818C29.6628 29.9002 27.6099 31.9296 25.0777 31.9225C22.5526 31.9154 20.5117 29.8503 20.5449 27.3343C20.5757 24.797 22.6167 22.8102 25.1632 22.8292C27.6432 22.8482 29.6699 24.8966 29.6651 27.3818H29.6628Z" fill="white"/>
<path d="M52.4599 27.3747C52.4599 29.9002 50.4165 31.932 47.8843 31.9225C45.3592 31.9154 43.3206 29.8575 43.3396 27.3391C43.3586 24.8278 45.4209 22.8079 47.9579 22.8293C50.445 22.8483 52.4622 24.8824 52.4622 27.3747H52.4599Z" fill="white"/>
</g>
<defs>
<clipPath id="clip0_30_127">
<rect width="73" height="73" fill="white"/>
</clipPath>
</defs>
</svg>
