<svg width="80" height="71" viewBox="0 0 80 71" fill="none" xmlns="http://www.w3.org/2000/svg">
<g clip-path="url(#clip0_30_200)">
<path d="M77.3384 9.43425C77.0502 9.43425 76.7665 9.43425 76.4782 9.43425H61.4996C60.1756 9.43425 58.8471 9.42069 57.5186 9.43877C56.9331 9.4478 56.6494 9.23093 56.6719 8.61644C56.6899 8.20076 56.6809 7.78056 56.6719 7.36488C56.5548 3.28037 53.5555 0.126623 49.4933 0.0678861C43.202 -0.0269975 36.9061 -0.0134427 30.6147 0.0678861C26.9083 0.113069 24.1207 2.67492 23.5217 6.33924C23.3911 7.1209 23.4181 7.90256 23.4181 8.68421C23.4181 9.21285 23.1839 9.4478 22.6615 9.43877C22.4048 9.42973 22.1391 9.43877 21.8824 9.43877C15.564 9.43877 9.24114 9.43425 2.92274 9.43877C0.882661 9.44328 0.0134878 10.3243 0.0134878 12.3395V47.3334C0.0134878 52.8367 0.0450122 58.3445 -2.26772e-05 63.8477C-0.0270436 67.4894 2.42286 69.8525 4.99885 70.6386C5.92657 70.9233 6.88131 71.0001 7.84956 71.0001C29.3042 70.9956 50.7588 71.0001 72.2179 71.0001C72.5017 71.0001 72.7899 71.0137 73.0781 70.9911C75.4875 70.8239 77.478 69.8705 78.9191 67.8554C79.6442 66.8388 79.8964 65.6957 80 64.4893V11.5578C79.6037 9.93126 79.0227 9.46587 77.3384 9.43425ZM28.3269 9.05923C28.381 8.48993 28.3269 7.91159 28.3449 7.34229C28.39 6.00037 29.3267 4.99731 30.6552 4.98828C36.9151 4.9702 43.1749 4.9702 49.4393 4.98828C50.7633 4.98828 51.7091 6.00037 51.7451 7.34681C51.7631 8.09684 51.9928 9.05471 51.628 9.53817C51.2857 9.98999 50.2724 9.6692 49.5519 9.67371C46.3544 9.68727 43.1614 9.67823 39.9639 9.67823C36.3026 9.67823 32.6368 9.6692 28.9754 9.68727C28.4891 9.68727 28.2774 9.5969 28.3269 9.05923ZM74.3931 14.3863C74.0959 15.2944 73.8167 16.1665 73.5285 17.0385C71.4704 23.233 69.4123 29.4276 67.3542 35.6221C66.7597 37.4068 66.1427 37.8632 64.2828 37.8632C60.3287 37.8632 56.3747 37.8541 52.4206 37.8767C51.8847 37.8767 51.673 37.7683 51.7406 37.2035C51.7901 36.7652 51.7541 36.3179 51.7496 35.8751C51.7406 34.0904 50.8354 33.1687 49.07 33.1687C43.918 33.1687 38.766 33.1687 33.6185 33.1687C32.6818 33.1687 31.7451 33.1551 30.8084 33.1687C29.3357 33.1913 28.3765 34.1492 28.3404 35.6176C28.3269 36.1914 28.3179 36.7652 28.3404 37.339C28.3585 37.7231 28.2774 37.8767 27.8406 37.8767C23.6523 37.8586 19.4641 37.8767 15.2758 37.8586C14.0058 37.8541 13.2943 37.2668 12.8529 35.9384C11.038 30.5119 9.23213 25.081 7.42623 19.6546C6.85429 17.9286 6.28235 16.2026 5.68338 14.3908H74.3886L74.3931 14.3863ZM33.0151 38.3331C33.0061 37.958 33.1186 37.8541 33.4924 37.8541C37.8608 37.8677 42.2292 37.8677 46.5976 37.8541C46.9714 37.8541 47.084 37.9535 47.075 38.3331C47.0524 39.5575 47.0479 40.7865 47.075 42.0109C47.0885 42.4537 46.9579 42.5757 46.5165 42.5712C44.3594 42.5486 42.2022 42.5622 40.0405 42.5622C37.8788 42.5622 35.7757 42.5441 33.6455 42.5757C33.1367 42.5848 32.988 42.4537 33.0061 41.9386C33.0466 40.7368 33.0331 39.5349 33.0061 38.3376L33.0151 38.3331ZM75.3209 63.1519C75.3209 65.1987 74.4742 66.0481 72.4386 66.0481H7.67843C5.59782 66.0481 4.76917 65.2122 4.76917 63.0977V26.9019C4.80971 26.8973 4.85024 26.8883 4.89077 26.8838C5.73292 29.4095 6.57057 31.9397 7.41723 34.4654C7.773 35.5272 8.10626 36.5935 8.48906 37.6418C9.62394 40.8 12.0873 42.5486 15.4199 42.5576C19.4506 42.5712 23.4812 42.5802 27.5118 42.5441C28.1783 42.5396 28.4575 42.6751 28.3494 43.38C28.2909 43.764 28.3359 44.1616 28.3404 44.5502C28.3494 46.3349 29.2501 47.2566 31.02 47.2566C36.5323 47.2566 42.0446 47.2566 47.5613 47.2566C48.1108 47.2566 48.6557 47.2612 49.2006 47.2566C50.7768 47.2386 51.7226 46.2988 51.7541 44.7354C51.7676 44.0351 51.5154 43.0908 51.8712 42.7022C52.2855 42.2549 53.2402 42.5667 53.9563 42.5667C57.4645 42.5531 60.9772 42.5667 64.49 42.5576C68.1108 42.5576 70.5832 40.7549 71.7316 37.2984C72.8845 33.8284 74.0374 30.3583 75.3209 26.8928V63.1519Z" fill="#06C279"/>
</g>
<defs>
<clipPath id="clip0_30_200">
<rect width="80" height="71" fill="white"/>
</clipPath>
</defs>
</svg>
