<svg width="81" height="81" viewBox="0 0 81 81" fill="none" xmlns="http://www.w3.org/2000/svg">
<g clip-path="url(#clip0_30_196)">
<path d="M80.724 54.794C79.981 52.5275 77.9383 51.1157 75.379 51.111C72.8481 51.1039 70.3195 51.085 67.7909 51.1275C67.2012 51.137 66.9913 50.9198 66.8285 50.4051C66.0902 48.0536 65.3189 45.714 64.5523 43.372C63.7008 40.7679 61.802 39.2711 59.3512 39.2664C56.8722 39.2616 54.9569 40.7821 54.0983 43.431C53.3411 45.7754 52.5603 48.1126 51.8291 50.4665C51.6687 50.9811 51.4352 51.137 50.9092 51.1228C49.5883 51.0827 48.2627 51.1086 46.9394 51.1086C46.4983 51.1086 46.0572 51.0945 45.6161 51.1086C44.4155 51.1558 43.2031 50.9741 42.012 51.2338C39.8254 51.7107 38.4101 53.0422 37.8676 55.2024C37.3227 57.3792 37.9667 59.2608 39.7192 60.6301C41.8256 62.2757 44.0169 63.8126 46.194 65.3637C46.6752 65.706 46.7955 65.9988 46.595 66.5819C45.7954 68.9121 45.0595 71.2636 44.3 73.608C44.0263 74.4532 43.8164 75.3055 43.9414 76.205C44.524 80.405 48.9797 82.3716 52.4613 79.9352C54.5818 78.4549 56.6622 76.9179 58.7356 75.3739C59.179 75.0434 59.4597 75.0033 59.9268 75.355C61.9246 76.8542 63.9579 78.3062 65.9817 79.7675C68.1258 81.3187 70.5695 81.4037 72.532 79.9989C74.5157 78.5777 75.2163 76.205 74.3907 73.6316C73.6383 71.2848 72.8882 68.9358 72.0933 66.6055C71.8999 66.0413 71.9612 65.7415 72.473 65.3826C74.5417 63.9307 76.5773 62.4338 78.6105 60.9323C80.6839 59.3977 81.4717 57.0699 80.724 54.7916V54.794ZM74.044 57.2729C71.7418 58.9539 69.4326 60.6254 67.1328 62.3064C65.7977 63.2814 65.4416 64.3509 65.944 65.9209C66.7861 68.5462 67.6494 71.1644 68.5009 73.785C68.5976 74.0825 68.6754 74.3847 68.8122 74.8498C66.3615 73.065 64.0617 71.3887 61.7595 69.7125C59.764 68.2629 58.9219 68.2653 56.9571 69.6983C54.6337 71.3934 52.3056 73.0815 49.8313 74.8805C50.7866 71.9294 51.6852 69.1459 52.5887 66.3647C53.2798 64.2376 52.9991 63.3499 51.2182 62.0561C48.8665 60.3468 46.5148 58.6352 43.9414 56.763C47.1729 56.763 50.1332 56.763 53.0958 56.763C55.0819 56.763 55.9098 56.168 56.5231 54.2793C57.4383 51.4651 58.344 48.6462 59.264 45.8037C59.6296 46.0351 59.6107 46.4222 59.7121 46.7268C60.5542 49.2577 61.3703 51.8004 62.1959 54.336C62.795 56.1775 63.6064 56.763 65.5666 56.763C68.5292 56.763 71.4942 56.763 74.4992 56.763C74.4497 57.0722 74.2138 57.1502 74.044 57.2729Z" fill="#06C279"/>
<path d="M38.6791 -9.91097e-05C27.232 -0.0425952 17.9196 9.25934 17.9266 20.7286C17.9314 32.1553 27.1942 41.4147 38.6272 41.4218C50.0483 41.4289 59.3253 32.1695 59.3536 20.7357C59.3796 9.3278 50.1238 0.042397 38.6791 -9.91097e-05ZM38.5564 35.7698C30.2111 35.7155 23.5405 28.9681 23.5735 20.6129C23.6065 12.3356 30.3715 5.62828 38.6649 5.65189C46.9937 5.67786 53.7516 12.4654 53.7044 20.764C53.6572 29.0956 46.8687 35.8218 38.5564 35.7698Z" fill="#06C279"/>
<path d="M22.3281 77.2721C17.1813 77.2721 12.0321 77.2745 6.88526 77.2721C2.70317 77.2697 0.0519213 74.6326 0.0613564 70.4468C0.0660739 68.1827 -0.146215 65.8997 0.18873 63.6544C0.776062 59.6929 3.0334 56.6898 6.00545 54.1755C9.9092 50.8749 14.4923 48.8634 19.3301 47.4044C25.5903 45.5133 32.0108 44.6846 38.5446 44.7083C40.007 44.713 41.1699 45.6526 41.3964 46.97C41.6299 48.3251 40.934 49.6166 39.698 50.1265C39.1107 50.3673 38.4927 50.365 37.8771 50.3673C32.4731 50.3862 27.1518 51.0543 21.9436 52.5134C17.5021 53.7576 13.2893 55.4999 9.6804 58.4605C7.88066 59.9384 6.38757 61.6524 5.84741 64.0133C5.62097 65.0025 5.71768 66.0059 5.70588 67.0046C5.69173 68.211 5.71768 69.4198 5.69645 70.6262C5.68465 71.3368 5.99365 71.665 6.70364 71.6201C6.90885 71.6083 7.11642 71.6201 7.32164 71.6201C17.6176 71.6201 27.9113 71.6201 38.2073 71.6201C39.8584 71.6201 41.0449 72.4275 41.3728 73.7544C41.8115 75.5321 40.5189 77.2343 38.6531 77.2627C36.3604 77.2957 34.0653 77.2721 31.7702 77.2721C28.6236 77.2721 25.4747 77.2721 22.3281 77.2721Z" fill="#06C279"/>
</g>
<defs>
<clipPath id="clip0_30_196">
<rect width="81" height="81" fill="white"/>
</clipPath>
</defs>
</svg>
