<svg width="63" height="86" viewBox="0 0 63 86" fill="none" xmlns="http://www.w3.org/2000/svg">
<g clip-path="url(#clip0_30_191)">
<path d="M51.862 23.7768C51.5306 22.6459 50.6339 22.214 49.5301 22.0587C46.1675 21.5855 42.8098 21.0686 39.4423 20.6269C38.8454 20.5493 38.5481 20.326 38.2995 19.814C36.7937 16.7224 35.2537 13.6477 33.7357 10.5609C33.4603 10.0004 33.1192 9.52232 32.5466 9.23839C31.3136 8.62201 30.0076 9.11463 29.3156 10.4979C27.7658 13.604 26.2356 16.7175 24.6956 19.8261C24.5105 20.1998 24.3716 20.5274 23.8233 20.6002C20.3949 21.054 16.9787 21.5733 13.5528 22.049C12.4611 22.2018 11.5401 22.5804 11.1746 23.7088C10.8115 24.8251 11.2818 25.6745 12.0932 26.4486C14.5274 28.7709 16.9178 31.137 19.352 33.4593C19.7711 33.8597 19.9393 34.231 19.8247 34.8013C19.5811 35.9831 19.3861 37.177 19.1815 38.3661C18.7721 40.7467 18.3701 43.1298 17.9948 45.3235C17.9266 47.4469 19.7297 48.5583 21.5182 47.6434C24.6128 46.0564 27.6927 44.4402 30.7605 42.8022C31.3063 42.5109 31.7181 42.5061 32.2615 42.7973C35.222 44.3819 38.2143 45.9083 41.1724 47.4954C42.1617 48.0244 43.1144 48.221 44.0744 47.5391C45.0832 46.8232 45.1246 45.7991 44.9248 44.6877C44.3327 41.3898 43.7772 38.0822 43.1899 34.7843C43.0973 34.2601 43.2094 33.8913 43.609 33.5103C46.0628 31.1661 48.4775 28.7806 50.9337 26.4364C51.7207 25.6866 52.1812 24.8542 51.862 23.7768ZM43.8527 26.8126C42.3006 28.3463 40.7386 29.8702 39.167 31.3845C38.4311 32.0931 38.1631 32.8963 38.3556 33.9228C38.7723 36.1481 39.1207 38.388 39.4911 40.623C39.5252 40.8244 39.5179 41.0355 39.5349 41.3486C37.3785 40.2056 35.2756 39.1451 33.2264 37.99C32.0495 37.3251 31.0017 37.3032 29.8126 37.9803C27.7683 39.1427 25.6606 40.2007 23.4164 41.3874C23.7258 39.5504 24.0061 37.8711 24.2912 36.1894C24.4276 35.3861 24.5811 34.5853 24.72 33.7821C24.8833 32.8405 24.5543 32.0858 23.8842 31.4136C22.1323 29.6567 20.4095 27.8731 18.6283 26.053C20.2438 25.8104 21.8983 25.5628 23.5528 25.3153C24.3618 25.1964 25.1708 25.0435 25.9846 24.9707C27.0714 24.8688 27.7512 24.2888 28.2069 23.3448C29.2668 21.1487 30.3438 18.9598 31.416 16.7709C31.7595 16.834 31.7668 17.1228 31.8643 17.3169C32.8804 19.3383 33.8965 21.3622 34.8833 23.3982C35.3317 24.3179 36.0066 24.83 37.0422 24.9683C39.5081 25.2959 41.9643 25.6793 44.4375 26.0433C44.4205 26.451 44.0744 26.5942 43.8527 26.8126Z" fill="#06C279"/>
<path d="M62.5076 25.9802C59.4374 7.40381 40.1171 -4.26136 22.0882 1.46324C-0.955329 8.77975 -7.60499 37.7667 9.9853 54.2635C10.3727 54.6275 10.5311 54.9794 10.5287 55.5084C10.5067 60.1676 10.5165 64.8269 10.5165 69.4886C10.5165 74.1503 10.5092 78.8678 10.5214 83.5587C10.5262 85.2064 11.7568 86.2305 13.3235 85.9514C13.7865 85.8689 14.1617 85.6116 14.5443 85.3738C19.9781 82.008 25.4118 78.647 30.831 75.2618C31.3378 74.9439 31.6814 74.939 32.1906 75.2593C37.6073 78.647 43.0411 82.008 48.4724 85.3763C48.8574 85.6141 49.2327 85.8713 49.6956 85.9538C51.3136 86.2402 52.4929 85.1676 52.4954 83.3645C52.5003 74.1066 52.5003 64.8463 52.4881 55.5885C52.4881 55.0424 52.6196 54.6542 53.0339 54.2538C61.0432 46.4471 64.3327 37.0072 62.5076 25.9802ZM47.8072 79.3289C47.449 79.4381 47.2322 79.1129 46.9763 78.9528C42.3954 76.1135 37.812 73.2791 33.2603 70.3962C32.0298 69.6172 30.9699 69.6318 29.7345 70.4156C25.2145 73.2913 20.6506 76.1014 16.0965 78.9261C15.8284 79.0935 15.5945 79.3556 15.1583 79.358V78.9188C15.1583 72.2939 15.1632 65.669 15.151 59.0465C15.1486 58.452 15.1559 58.2141 15.8528 58.5879C26.289 64.2251 36.7423 64.2105 47.1908 58.6C47.3491 58.5151 47.5124 58.4398 47.6757 58.367C47.6976 58.3573 47.7317 58.3792 47.8072 58.4034V79.3289ZM31.4328 58.1413C16.6739 58.1341 4.67824 46.1219 4.68312 31.353C4.68799 16.6229 16.7056 4.67377 31.5254 4.66163C46.2624 4.6495 58.3044 16.618 58.3288 31.302C58.3556 46.1243 46.3062 58.1462 31.4328 58.1413Z" fill="#06C279"/>
<path d="M51.862 23.7768C51.5306 22.6459 50.6339 22.214 49.5301 22.0587C46.1675 21.5855 42.8098 21.0686 39.4423 20.6269C38.8454 20.5493 38.5481 20.326 38.2995 19.814C36.7937 16.7224 35.2537 13.6477 33.7357 10.5609C33.4603 10.0004 33.1192 9.52232 32.5466 9.23839C31.3136 8.62201 30.0076 9.11463 29.3156 10.4979C27.7658 13.604 26.2356 16.7175 24.6956 19.8261C24.5105 20.1998 24.3716 20.5274 23.8233 20.6002C20.3949 21.054 16.9787 21.5733 13.5528 22.049C12.4611 22.2018 11.5401 22.5804 11.1746 23.7088C10.8115 24.8251 11.2818 25.6745 12.0932 26.4486C14.5274 28.7709 16.9178 31.137 19.352 33.4593C19.7711 33.8597 19.9393 34.231 19.8247 34.8013C19.5811 35.9831 19.3861 37.177 19.1815 38.3661C18.7721 40.7467 18.3701 43.1298 17.9948 45.3235C17.9266 47.4469 19.7297 48.5583 21.5182 47.6434C24.6128 46.0564 27.6927 44.4402 30.7605 42.8022C31.3063 42.5109 31.7181 42.5061 32.2615 42.7973C35.222 44.3819 38.2143 45.9083 41.1724 47.4954C42.1617 48.0244 43.1144 48.221 44.0744 47.5391C45.0832 46.8232 45.1246 45.7991 44.9248 44.6877C44.3327 41.3898 43.7772 38.0822 43.1899 34.7843C43.0973 34.2601 43.2094 33.8913 43.609 33.5103C46.0628 31.1661 48.4775 28.7806 50.9337 26.4364C51.7207 25.6866 52.1812 24.8542 51.862 23.7768ZM43.8527 26.8126C42.3006 28.3463 40.7386 29.8702 39.167 31.3845C38.4311 32.0931 38.1631 32.8963 38.3556 33.9228C38.7723 36.1481 39.1207 38.388 39.4911 40.623C39.5252 40.8244 39.5179 41.0355 39.5349 41.3486C37.3785 40.2056 35.2756 39.1451 33.2264 37.99C32.0495 37.3251 31.0017 37.3032 29.8126 37.9803C27.7683 39.1427 25.6606 40.2007 23.4164 41.3874C23.7258 39.5504 24.0061 37.8711 24.2912 36.1894C24.4276 35.3861 24.5811 34.5853 24.72 33.7821C24.8833 32.8405 24.5543 32.0858 23.8842 31.4136C22.1323 29.6567 20.4095 27.8731 18.6283 26.053C20.2438 25.8104 21.8983 25.5628 23.5528 25.3153C24.3618 25.1964 25.1708 25.0435 25.9846 24.9707C27.0714 24.8688 27.7512 24.2888 28.2069 23.3448C29.2668 21.1487 30.3438 18.9598 31.416 16.7709C31.7595 16.834 31.7668 17.1228 31.8643 17.3169C32.8804 19.3383 33.8965 21.3622 34.8833 23.3982C35.3317 24.3179 36.0066 24.83 37.0422 24.9683C39.5081 25.2959 41.9643 25.6793 44.4375 26.0433C44.4205 26.451 44.0744 26.5942 43.8527 26.8126Z" fill="#FEFEFE"/>
<path d="M51.862 23.7768C51.5306 22.6459 50.6339 22.214 49.5301 22.0587C46.1675 21.5855 42.8098 21.0686 39.4423 20.6269C38.8454 20.5493 38.5481 20.326 38.2995 19.814C36.7937 16.7224 35.2537 13.6477 33.7357 10.5609C33.4603 10.0004 33.1192 9.52232 32.5466 9.23839C31.3136 8.62201 30.0076 9.11463 29.3156 10.4979C27.7658 13.604 26.2356 16.7175 24.6956 19.8261C24.5105 20.1998 24.3716 20.5274 23.8233 20.6002C20.3949 21.054 16.9787 21.5733 13.5528 22.049C12.4611 22.2018 11.5401 22.5804 11.1746 23.7088C10.8115 24.8251 11.2818 25.6745 12.0932 26.4486C14.5274 28.7709 16.9178 31.137 19.352 33.4593C19.7711 33.8597 19.9393 34.231 19.8247 34.8013C19.5811 35.9831 19.3861 37.177 19.1815 38.3661C18.7721 40.7467 18.3701 43.1298 17.9948 45.3235C17.9266 47.4469 19.7297 48.5583 21.5182 47.6434C24.6128 46.0564 27.6927 44.4402 30.7605 42.8022C31.3063 42.5109 31.7181 42.5061 32.2615 42.7973C35.222 44.3819 38.2143 45.9083 41.1724 47.4954C42.1617 48.0244 43.1144 48.221 44.0744 47.5391C45.0832 46.8232 45.1246 45.7991 44.9248 44.6877C44.3327 41.3898 43.7772 38.0822 43.1899 34.7843C43.0973 34.2601 43.2094 33.8913 43.609 33.5103C46.0628 31.1661 48.4775 28.7806 50.9337 26.4364C51.7207 25.6866 52.1812 24.8542 51.862 23.7768ZM43.8527 26.8126C42.3006 28.3463 40.7386 29.8702 39.167 31.3845C38.4311 32.0931 38.1631 32.8963 38.3556 33.9228C38.7723 36.1481 39.1207 38.388 39.4911 40.623C39.5252 40.8244 39.5179 41.0355 39.5349 41.3486C37.3785 40.2056 35.2756 39.1451 33.2264 37.99C32.0495 37.3251 31.0017 37.3032 29.8126 37.9803C27.7683 39.1427 25.6606 40.2007 23.4164 41.3874C23.7258 39.5504 24.0061 37.8711 24.2912 36.1894C24.4276 35.3861 24.5811 34.5853 24.72 33.7821C24.8833 32.8405 24.5543 32.0858 23.8842 31.4136C22.1323 29.6567 20.4095 27.8731 18.6283 26.053C20.2438 25.8104 21.8983 25.5628 23.5528 25.3153C24.3618 25.1964 25.1708 25.0435 25.9846 24.9707C27.0714 24.8688 27.7512 24.2888 28.2069 23.3448C29.2668 21.1487 30.3438 18.9598 31.416 16.7709C31.7595 16.834 31.7668 17.1228 31.8643 17.3169C32.8804 19.3383 33.8965 21.3622 34.8833 23.3982C35.3317 24.3179 36.0066 24.83 37.0422 24.9683C39.5081 25.2959 41.9643 25.6793 44.4375 26.0433C44.4205 26.451 44.0744 26.5942 43.8527 26.8126Z" fill="#06C279"/>
</g>
<defs>
<clipPath id="clip0_30_191">
<rect width="63" height="86" fill="white"/>
</clipPath>
</defs>
</svg>
